<svg width="108" height="108" viewBox="0 0 108 108" fill="none" xmlns="http://www.w3.org/2000/svg">
  <rect width="108" height="108" rx="24" fill="#3B82F6"/>
  <path d="M54 20C35.2 20 20 35.2 20 54C20 72.8 35.2 88 54 88C72.8 88 88 72.8 88 54C88 35.2 72.8 20 54 20ZM54 80C38.5 80 26 67.5 26 54C26 40.5 38.5 28 54 28C69.5 28 82 40.5 82 54C82 67.5 69.5 80 54 80Z" fill="white"/>
  <path d="M54 32C42.4 32 33 41.4 33 53C33 64.6 42.4 74 54 74C65.6 74 75 64.6 75 53C75 41.4 65.6 32 54 32ZM54 66C46.3 66 40 59.7 40 53C40 46.3 46.3 40 54 40C61.7 40 68 46.3 68 53C68 59.7 61.7 66 54 66Z" fill="white"/>
  <path d="M54 44C49.6 44 46 47.6 46 52C46 56.4 49.6 60 54 60C58.4 60 62 56.4 62 52C62 47.6 58.4 44 54 44Z" fill="white"/>
</svg> 